<svg width="327" height="330" viewBox="0 0 327 330" fill="none" xmlns="http://www.w3.org/2000/svg">
<path d="M275.758 8.284C300.123 20.245 315.628 49.926 322.051 79.164C328.475 108.402 325.817 137.419 322.938 167.1C319.836 197.002 316.514 227.347 302.781 256.364C289.269 285.38 265.347 312.846 235.223 323.921C205.099 334.996 168.552 329.68 138.871 314.84C109.19 300.221 85.9325 276.077 58.9095 251.491C32.108 227.126 1.31949 202.096 0.87649 175.074C0.43349 148.051 29.893 118.812 50.0495 89.353C70.206 60.115 80.838 30.877 101.659 17.144C122.258 3.411 153.49 5.4045 185.607 3.6325C217.946 1.8605 251.171 -3.677 275.758 8.284Z" fill="#A9ADD7"/>
</svg>
