<svg width="421" height="421" viewBox="0 0 421 421" fill="none" xmlns="http://www.w3.org/2000/svg">
<path d="M210.438 420.875C326.659 420.875 420.875 326.659 420.875 210.438C420.875 94.2161 326.659 0 210.438 0C94.2161 0 0 94.2161 0 210.438C0 326.659 94.2161 420.875 210.438 420.875Z" fill="url(#paint0_linear_50_5)"/>
<path d="M288.806 274.795L298.154 215.399H239.676V176.873C239.676 160.619 247.831 144.767 274.023 144.767H300.625V94.2007C300.625 94.2007 276.492 90.1875 253.431 90.1875C205.249 90.1875 173.787 118.641 173.787 170.13V215.399H120.25V274.795H173.787V418.387C184.534 420.033 195.53 420.875 206.731 420.875C217.932 420.875 228.929 420.033 239.676 418.387V274.795H288.806Z" fill="white"/>
<defs>
<linearGradient id="paint0_linear_50_5" x1="210.438" y1="0" x2="210.438" y2="419.627" gradientUnits="userSpaceOnUse">
<stop stop-color="#18ACFE"/>
<stop offset="1" stop-color="#0163E0"/>
</linearGradient>
</defs>
</svg>
