<svg width="140" height="142" viewBox="0 0 140 142" fill="none" xmlns="http://www.w3.org/2000/svg">
    <path
        d="M128.006 112.91L120.148 120.975C106.292 134.83 88.0945 141.654 70.1034 141.654V141.861C51.9055 141.654 33.7075 134.83 19.8523 120.975C9.09897 110.015 2.27474 96.3663 0 82.0975H23.7814C25.6425 90.3693 29.9852 98.2275 36.3959 104.431V104.638C45.4948 113.944 57.9025 118.493 70.1034 118.493C78.7888 118.493 87.2673 116.219 94.712 111.462L11.9941 28.7445L19.8523 20.6795C33.7075 7.03102 51.9055 0 70.1034 0C88.0945 0 106.292 6.82422 120.148 20.6795C131.108 31.6396 137.932 45.4948 140 59.5569H116.425C114.357 51.4919 110.222 43.4269 103.811 37.223C94.5052 27.7105 82.0975 23.161 70.1034 23.161C61.418 23.161 52.7326 25.6425 45.288 30.192L128.006 112.91Z"
        fill="#1E1E1E" />
</svg>